<svg width="91" height="91" viewBox="0 0 91 91" fill="none" xmlns="http://www.w3.org/2000/svg">
<circle cx="45.5" cy="45.5" r="45.5" fill="black"/>
<path d="M35.0527 46.8047H25.1035V57H18.9336V31.4062H36.0547V36.1699H25.1035V42.0586H35.0527V46.8047ZM48.4648 57C48.2539 56.6133 48.0664 56.0449 47.9023 55.2949C46.8125 56.666 45.2891 57.3516 43.332 57.3516C41.5391 57.3516 40.0156 56.8125 38.7617 55.7344C37.5078 54.6445 36.8809 53.2793 36.8809 51.6387C36.8809 49.5762 37.6426 48.0176 39.166 46.9629C40.6895 45.9082 42.9043 45.3809 45.8105 45.3809H47.6387V44.3789C47.6387 42.6328 46.8828 41.7598 45.3711 41.7598C43.9648 41.7598 43.2617 42.4512 43.2617 43.834H37.3379C37.3379 41.9941 38.1172 40.5 39.6758 39.3516C41.2461 38.2031 43.2441 37.6289 45.6699 37.6289C48.0957 37.6289 50.0117 38.2207 51.418 39.4043C52.8242 40.5879 53.5449 42.2109 53.5801 44.2734V52.6934C53.6035 54.4395 53.873 55.7754 54.3887 56.7012V57H48.4648ZM44.7559 53.1328C45.4941 53.1328 46.1035 52.9746 46.584 52.6582C47.0762 52.3418 47.4277 51.9844 47.6387 51.5859V48.5449H45.916C43.8535 48.5449 42.8223 49.4707 42.8223 51.3223C42.8223 51.8613 43.0039 52.3008 43.3672 52.6406C43.7305 52.9688 44.1934 53.1328 44.7559 53.1328ZM64.1797 49.9512L67.1855 37.9805H73.4258L67.2207 57H61.1738L54.9688 37.9805H61.2266L64.1797 49.9512Z" fill="white"/>
</svg>
